<?xml version="1.0" encoding="utf-8"?>
<!-- Generator: Adobe Illustrator 16.0.0, SVG Export Plug-In . SVG Version: 6.00 Build 0)  -->
<!DOCTYPE svg PUBLIC "-//W3C//DTD SVG 1.0//EN" "http://www.w3.org/TR/2001/REC-SVG-20010904/DTD/svg10.dtd">
<svg version="1.0" id="Layer_1" xmlns="http://www.w3.org/2000/svg" xmlns:xlink="http://www.w3.org/1999/xlink" x="0px" y="0px"
	 width="300px" height="300px" viewBox="0 0 300 300" enable-background="new 0 0 300 300" xml:space="preserve">
<path fill="#FFFFFF" d="M279.496,155.248c-5.011-2.05-10.033-3.696-14.956-5.254c4.923-1.536,9.945-3.184,14.95-5.231
	c7.203-2.939,13.621-6.823,19.094-11.529c1.709-1.471,1.895-4.046,0.43-5.751c-1.471-1.703-4.046-1.898-5.749-0.428
	c-4.806,4.139-10.476,7.56-16.855,10.166c-5.905,2.406-11.991,4.297-17.881,6.119c-2.483,0.762-4.987,1.546-7.482,2.36
	c-9.872-3.377-19.257-7.6-27.606-15.376c3.351-10.911,9.358-19.263,16.22-27.125c2.573-0.54,5.122-1.118,7.657-1.69
	c6.018-1.366,12.23-2.768,18.553-3.644c6.829-0.921,13.446-0.797,19.677,0.37c2.206,0.431,4.348-1.02,4.762-3.241
	c0.42-2.205-1.029-4.335-3.242-4.757c-7.09-1.35-14.598-1.495-22.305-0.44c-5.359,0.732-10.531,1.821-15.567,2.938
	c3.496-3.795,7.013-7.74,10.336-12.017c4.762-6.14,8.375-12.716,10.77-19.53c0.742-2.129-0.387-4.452-2.51-5.194
	c-2.125-0.747-4.449,0.387-5.191,2.502c-2.098,5.987-5.293,11.777-9.512,17.233c-3.913,5.033-8.243,9.717-12.426,14.242
	c-1.771,1.917-3.548,3.826-5.299,5.782c-10.24,2.02-20.475,3.043-31.601,0.488c-2.559-11.128-1.53-21.362,0.485-31.603
	c1.956-1.748,3.879-3.522,5.785-5.288c4.525-4.198,9.209-8.524,14.246-12.43c5.448-4.222,11.245-7.429,17.227-9.504
	c2.127-0.751,3.248-3.08,2.508-5.204c-0.744-2.125-3.071-3.246-5.196-2.499c-6.817,2.387-13.388,6.001-19.531,10.766
	c-4.274,3.312-8.212,6.841-12.016,10.327c1.125-5.03,2.207-10.205,2.941-15.568c1.053-7.705,0.899-15.2-0.441-22.294
	c-0.416-2.216-2.558-3.67-4.766-3.254c-2.207,0.425-3.664,2.557-3.248,4.764c1.186,6.229,1.308,12.848,0.376,19.679
	c-0.863,6.316-2.276,12.528-3.636,18.548c-0.579,2.537-1.154,5.091-1.695,7.668c-7.864,6.851-16.206,12.864-27.123,16.207
	c-7.772-8.354-12.001-17.732-15.376-27.611c0.817-2.491,1.592-4.991,2.362-7.475c1.824-5.889,3.711-11.979,6.119-17.884
	c2.606-6.376,6.027-12.051,10.164-16.855c1.471-1.694,1.283-4.274-0.432-5.747c-1.699-1.464-4.276-1.276-5.739,0.431
	c-4.714,5.469-8.595,11.899-11.535,19.102c-2.046,5.005-3.689,10.023-5.24,14.948c-1.544-4.925-3.193-9.943-5.235-14.948
	c-2.941-7.203-6.827-13.627-11.533-19.102c-1.471-1.707-4.052-1.895-5.749-0.431c-1.71,1.473-1.896,4.052-0.437,5.747
	c4.144,4.81,7.564,10.479,10.171,16.855c2.406,5.906,4.297,11.995,6.119,17.884c0.774,2.484,1.546,4.984,2.366,7.48
	c-3.381,9.874-7.607,19.252-15.378,27.606c-10.911-3.343-19.263-9.356-27.121-16.207c-0.544-2.577-1.123-5.131-1.698-7.668
	c-1.36-6.013-2.774-12.232-3.639-18.548c-0.931-6.832-0.807-13.451,0.373-19.679c0.419-2.207-1.035-4.339-3.244-4.764
	c-2.205-0.417-4.344,1.038-4.763,3.246c-1.342,7.102-1.492,14.597-0.442,22.302c0.737,5.363,1.82,10.538,2.942,15.568
	c-3.8-3.485-7.74-7.015-12.019-10.327c-6.147-4.765-12.715-8.379-19.53-10.766c-2.123-0.747-4.451,0.374-5.196,2.499
	c-0.742,2.124,0.38,4.453,2.508,5.204c5.984,2.075,11.775,5.282,17.228,9.504c5.039,3.906,9.715,8.232,14.244,12.43
	c1.908,1.766,3.829,3.54,5.785,5.288c2.009,10.24,3.039,20.475,0.484,31.603c-11.125,2.555-21.358,1.531-31.596-0.488
	c-1.756-1.956-3.531-3.871-5.301-5.782c-4.188-4.525-8.515-9.209-12.422-14.242c-4.22-5.456-7.431-11.246-9.521-17.233
	c-0.738-2.115-3.062-3.249-5.188-2.496c-2.122,0.736-3.244,3.06-2.505,5.184c2.383,6.818,6.002,13.395,10.77,19.527
	c3.317,4.284,6.843,8.229,10.33,12.024c-5.034-1.122-10.205-2.205-15.568-2.943c-7.704-1.049-15.203-0.896-22.301,0.446
	c-2.208,0.422-3.666,2.552-3.246,4.757c0.419,2.222,2.552,3.666,4.767,3.241c6.227-1.167,12.851-1.291,19.678-0.37
	c6.318,0.87,12.536,2.277,18.55,3.644c2.535,0.572,5.087,1.15,7.658,1.69c6.86,7.868,12.867,16.214,16.215,27.125
	c-8.355,7.776-17.731,11.999-27.601,15.376c-2.502-0.814-5.001-1.599-7.485-2.36c-5.886-1.833-11.978-3.713-17.881-6.119
	c-6.382-2.606-12.055-6.027-16.857-10.166c-1.705-1.471-4.277-1.275-5.748,0.428c-1.463,1.705-1.278,4.28,0.43,5.741
	c5.469,4.716,11.894,8.6,19.092,11.533c5.009,2.054,10.03,3.701,14.954,5.237c-4.924,1.551-9.945,3.205-14.954,5.246
	c-7.198,2.941-13.623,6.822-19.092,11.538c-1.704,1.46-1.893,4.039-0.43,5.747c1.471,1.699,4.043,1.89,5.748,0.413
	c4.806-4.131,10.475-7.541,16.857-10.156c5.904-2.403,11.989-4.294,17.881-6.121c2.484-0.771,4.983-1.536,7.485-2.359
	c9.869,3.379,19.246,7.602,27.601,15.386c-3.348,10.904-9.355,19.254-16.215,27.114c-2.571,0.542-5.123,1.123-7.658,1.695
	c-6.015,1.357-12.232,2.774-18.55,3.634c-6.832,0.932-13.451,0.808-19.678-0.37c-2.214-0.414-4.348,1.031-4.767,3.244
	c-0.42,2.217,1.033,4.346,3.246,4.768c7.09,1.333,14.597,1.488,22.301,0.441c5.364-0.736,10.532-1.818,15.568-2.94
	c-3.487,3.792-7.013,7.736-10.33,12.003c-4.761,6.148-8.384,12.724-10.77,19.545c-0.738,2.121,0.383,4.453,2.505,5.189
	c2.126,0.748,4.45-0.382,5.188-2.503c2.093-5.979,5.301-11.776,9.521-17.221c3.907-5.055,8.234-9.719,12.422-14.248
	c1.771-1.914,3.545-3.841,5.301-5.787c10.237-2.021,20.471-3.044,31.596-0.481c2.555,11.112,1.524,21.348-0.484,31.6
	c-1.956,1.739-3.879,3.522-5.785,5.286c-4.529,4.194-9.205,8.521-14.248,12.429c-5.449,4.215-11.24,7.426-17.224,9.516
	c-2.128,0.736-3.25,3.061-2.508,5.189c0.745,2.13,3.069,3.244,5.193,2.502c6.817-2.374,13.385-6,19.533-10.768
	c4.278-3.312,8.21-6.842,12.019-10.34c-1.131,5.042-2.205,10.221-2.942,15.573c-1.05,7.713-0.899,15.209,0.442,22.312
	c0.419,2.203,2.558,3.662,4.763,3.242c2.206-0.418,3.663-2.554,3.244-4.771c-1.18-6.22-1.304-12.841-0.373-19.674
	c0.864-6.32,2.278-12.532,3.639-18.538c0.575-2.543,1.154-5.099,1.698-7.669c7.858-6.857,16.21-12.867,27.121-16.218
	c7.771,8.35,11.997,17.733,15.378,27.6c-0.82,2.504-1.592,5.003-2.366,7.49c-1.822,5.882-3.707,11.979-6.119,17.886
	c-2.606,6.367-6.027,12.045-10.162,16.853c-1.469,1.691-1.282,4.269,0.428,5.744c1.697,1.461,4.278,1.28,5.739-0.434
	c4.72-5.466,8.602-11.886,11.533-19.085c2.046-5.013,3.699-10.031,5.245-14.958c1.543,4.927,3.194,9.945,5.234,14.958
	c2.94,7.199,6.827,13.613,11.531,19.089c1.473,1.71,4.05,1.891,5.749,0.43c1.709-1.476,1.902-4.045,0.432-5.744
	c-4.137-4.808-7.558-10.485-10.164-16.853c-2.408-5.906-4.295-11.995-6.119-17.886c-0.771-2.487-1.545-4.986-2.362-7.49
	c3.375-9.866,7.604-19.25,15.376-27.6c10.911,3.351,19.259,9.36,27.123,16.218c0.541,2.57,1.116,5.126,1.695,7.661
	c1.359,6.014,2.772,12.226,3.636,18.546c0.932,6.833,0.81,13.454-0.37,19.674c-0.422,2.217,1.027,4.353,3.242,4.771
	c2.208,0.42,4.35-1.039,4.762-3.242c1.347-7.104,1.492-14.6,0.445-22.303c-0.734-5.358-1.822-10.541-2.941-15.571
	c3.804,3.49,7.741,7.017,12.01,10.328c6.149,4.768,12.72,8.384,19.533,10.777c2.129,0.738,4.456-0.382,5.2-2.504
	c0.734-2.129-0.381-4.457-2.508-5.197c-5.983-2.09-11.78-5.301-17.227-9.516c-5.037-3.908-9.721-8.234-14.246-12.429
	c-1.906-1.768-3.829-3.547-5.785-5.286c-2.016-10.252-3.044-20.487-0.485-31.6c11.126-2.562,21.36-1.532,31.601,0.485
	c1.757,1.95,3.528,3.869,5.299,5.783c4.183,4.529,8.513,9.193,12.426,14.248c4.219,5.444,7.42,11.242,9.512,17.221
	c0.734,2.129,3.066,3.251,5.189,2.503c2.125-0.736,3.244-3.068,2.502-5.189c-2.374-6.821-5.998-13.396-10.76-19.537
	c-3.323-4.274-6.84-8.211-10.336-12.003c5.036,1.114,10.204,2.196,15.565,2.933c7.709,1.047,15.211,0.892,22.307-0.441
	c2.207-0.418,3.662-2.56,3.242-4.768c-0.422-2.209-2.556-3.658-4.762-3.244c-6.23,1.178-12.848,1.31-19.683,0.37
	c-6.312-0.859-12.529-2.276-18.541-3.634c-2.541-0.572-5.1-1.153-7.667-1.695c-6.857-7.86-12.865-16.21-16.216-27.114
	c8.357-7.784,17.74-12.007,27.61-15.386c2.491,0.823,4.995,1.588,7.479,2.359c5.89,1.827,11.976,3.718,17.884,6.121
	c6.377,2.615,12.053,6.025,16.853,10.156c1.701,1.477,4.278,1.29,5.749-0.413c1.465-1.708,1.279-4.287-0.43-5.747
	C293.117,162.062,286.688,158.181,279.496,155.248z M227.455,105.281c-4.058,5.398-7.646,11.334-10.298,18.219
	c-2.075-2.626-4.086-5.518-5.988-8.809c-1.9-3.3-3.408-6.489-4.636-9.6C213.822,106.242,220.751,106.098,227.455,105.281z
	 M194.721,72.541c-0.816,6.709-0.951,13.647,0.192,20.935c-3.114-1.239-6.304-2.742-9.595-4.646
	c-3.298-1.905-6.193-3.91-8.817-5.984C183.39,80.186,189.319,76.601,194.721,72.541z M150,60.555
	c2.649,6.219,5.992,12.289,10.633,18.031c-3.312,0.491-6.825,0.78-10.633,0.78c-3.805,0-7.316-0.289-10.632-0.78
	C144.007,72.844,147.352,66.773,150,60.555z M123.494,82.845c-2.618,2.074-5.518,4.079-8.81,5.984
	c-3.295,1.904-6.479,3.407-9.598,4.638c1.146-7.288,1.008-14.217,0.193-20.926C110.679,76.601,116.611,80.186,123.494,82.845z
	 M72.541,105.281c6.708,0.817,13.636,0.955,20.927-0.189c-1.231,3.11-2.735,6.3-4.644,9.6c-1.899,3.291-3.905,6.183-5.985,8.809
	C80.183,116.615,76.601,110.679,72.541,105.281z M60.562,149.994c6.209-2.643,12.282-5.987,18.024-10.628
	c0.493,3.315,0.778,6.829,0.778,10.628c0,3.813-0.285,7.328-0.778,10.647C72.843,155.988,66.771,152.646,60.562,149.994z
	 M72.541,194.724c4.06-5.404,7.642-11.335,10.298-18.231c2.08,2.626,4.086,5.536,5.985,8.823c1.908,3.299,3.412,6.487,4.644,9.6
	C86.177,193.769,79.249,193.912,72.541,194.724z M105.28,227.462c0.81-6.71,0.953-13.639-0.193-20.926
	c3.119,1.226,6.303,2.737,9.598,4.64c3.292,1.902,6.191,3.908,8.81,5.99C116.611,219.812,110.679,223.398,105.28,227.462z
	 M150,239.441c-2.648-6.213-5.999-12.278-10.632-18.021c3.315-0.501,6.823-0.783,10.632-0.783c3.808,0,7.321,0.282,10.633,0.783
	C155.992,227.163,152.649,233.229,150,239.441z M167.245,214.36c-5.199-1.179-10.879-1.879-17.245-1.879
	c-6.371,0-12.049,0.7-17.246,1.879c-3.91-3.626-8.481-7.061-13.998-10.244c-5.512-3.185-10.783-5.421-15.875-7.005
	c-1.572-5.078-3.814-10.352-6.991-15.867c-3.186-5.521-6.628-10.089-10.249-14.001c1.183-5.198,1.879-10.873,1.879-17.25
	c0-6.361-0.696-12.037-1.879-17.238c3.621-3.912,7.067-8.485,10.249-14.001c3.184-5.515,5.419-10.773,6.999-15.862
	c5.084-1.586,10.355-3.819,15.869-7.003c5.515-3.186,10.086-6.63,13.998-10.244c5.195,1.179,10.873,1.874,17.244,1.874
	c6.37,0,12.046-0.695,17.245-1.874c3.904,3.614,8.476,7.059,13.997,10.244c5.517,3.184,10.788,5.417,15.872,7.003
	c1.576,5.089,3.814,10.348,6.999,15.862c3.18,5.516,6.628,10.097,10.24,14.001c-1.183,5.201-1.873,10.885-1.873,17.244
	c0,6.371,0.69,12.045,1.873,17.244c-3.614,3.912-7.061,8.488-10.242,14.009c-3.183,5.508-5.425,10.781-7.003,15.859
	c-5.088,1.584-10.35,3.825-15.866,7.005C175.721,207.3,171.149,210.734,167.245,214.36z M194.721,227.462
	c-5.401-4.063-11.331-7.649-18.22-10.296c2.624-2.082,5.52-4.088,8.817-6.002c3.291-1.891,6.48-3.402,9.595-4.628
	C193.77,213.823,193.904,220.752,194.721,227.462z M227.455,194.724c-6.704-0.812-13.633-0.955-20.922,0.191
	c1.228-3.112,2.735-6.301,4.636-9.6c1.902-3.291,3.913-6.185,5.988-8.815C219.81,183.389,223.397,189.323,227.455,194.724z
	 M221.409,160.641c-0.485-3.319-0.773-6.834-0.773-10.647c0-3.799,0.288-7.307,0.773-10.622c5.745,4.635,11.816,7.979,18.031,10.622
	C233.226,152.646,227.154,155.988,221.409,160.641z"/>
</svg>
